<svg width="40" height="40"  xmlns="http://www.w3.org/2000/svg" viewBox="0 0 40.42 39.88">
<defs>
<style>.cls-1{fill:none;}.cls-2{fill:#ffdb70;}</style>
</defs>
<g id="Layer_2" data-name="Layer 2">
<g id="Layer_1-2" data-name="Layer 1">
<rect class="cls-1" width="40.42" height="39.88"/>
<path class="cls-2" d="M31.13,4.11A3.17,3.17,0,0,0,27.67.78H12.74A3.16,3.16,0,0,0,9.29,4.11V35.75a3.17,3.17,0,0,0,3.47,3.35H27.65a3.18,3.18,0,0,0,3.48-3.35V4.11ZM24.55,2c-.11.57-.21,1.13-.35,1.67,0,.08-.24.16-.37.16H18.54c-.66,0-1.31,0-2,0-.27,0-.36-.08-.4-.34-.08-.49-.2-1-.31-1.51ZM29.84,20V35.76a1.92,1.92,0,0,1-2.17,2.11H12.74a1.92,1.92,0,0,1-2.17-2.08V4.09A1.91,1.91,0,0,1,12.74,2c.51,0,1,0,1.53,0,.21,0,.29.07.33.28.14.74.3,1.48.47,2.23a.65.65,0,0,0,.75.59h8.79a.65.65,0,0,0,.74-.6c.16-.73.33-1.46.46-2.2,0-.25.15-.3.39-.3.55,0,1.1,0,1.65,0a1.88,1.88,0,0,1,2,1.92c0,3.23,0,6.47,0,9.7ZM16.23,35.39H12.62c-.47,0-.76.24-.76.62s.29.61.76.62h3.61c.47,0,.76-.25.76-.62S16.7,35.4,16.23,35.39Zm2.62,0h-.48c-.44,0-.72.25-.73.61s.28.62.75.63h.44c.45,0,.73-.25.73-.61S19.29,35.41,18.85,35.39Zm4.66-8A1.42,1.42,0,0,1,23.32,25l.39-.3a2,2,0,0,0-1.14-.94,2.37,2.37,0,0,0-1.64,0l-.4.15a.42.42,0,0,1-.31,0c-.18-.06-.35-.11-.52-.18A2,2,0,0,0,18,24a2.2,2.2,0,0,0-1.18,1.59A3.79,3.79,0,0,0,17,27.4a5.51,5.51,0,0,0,.91,1.85,3.73,3.73,0,0,0,.44.45A1.25,1.25,0,0,0,19,30h.28a7,7,0,0,0,1-.29,1.13,1.13,0,0,1,.7.07,5.22,5.22,0,0,0,.56.18,1.19,1.19,0,0,0,1-.25,3.09,3.09,0,0,0,.82-1,9.79,9.79,0,0,0,.45-.92.24.24,0,0,0-.1-.32A1.18,1.18,0,0,0,23.51,27.41ZM21.42,23.1a1.8,1.8,0,0,0,.48-1.34,1.77,1.77,0,0,0-1.59,1.81A1.4,1.4,0,0,0,21.42,23.1Z"/>
<path class="cls-2" d="M18.51,10.13l-.07,0a.19.19,0,0,0,0,.26l.4.59a2.32,2.32,0,0,0-1.23,1.5h5.11A2.33,2.33,0,0,0,21.46,11l.4-.59a.2.2,0,0,0-.05-.26.19.19,0,0,0-.26.06l-.44.64a2.79,2.79,0,0,0-2,0l-.44-.64A.18.18,0,0,0,18.51,10.13Zm.6,1.46a.28.28,0,0,1,.28.27.29.29,0,0,1-.28.28.28.28,0,0,1-.28-.28A.27.27,0,0,1,19.11,11.59Zm2,0a.27.27,0,0,1,.28.27.28.28,0,1,1-.55,0A.27.27,0,0,1,21.14,11.59ZM17,12.87a.55.55,0,0,0-.56.54V16a.55.55,0,0,0,.56.55.52.52,0,0,0,.18,0V12.9A.52.52,0,0,0,17,12.87Zm.55,0v4a.55.55,0,0,0,.56.54h4.07a.55.55,0,0,0,.56-.54v-4Zm5.74,0-.18,0v3.59a.57.57,0,0,0,.18,0,.55.55,0,0,0,.56-.55V13.41A.55.55,0,0,0,23.27,12.87Zm-5,4.93v.73a.75.75,0,0,0,1.49,0V17.8Zm2.23,0v.73a.74.74,0,0,0,1.48,0V17.8Z"/></g></g></svg>